<?xml version="1.0" encoding="UTF-8"?>
<svg id="_图层_2" data-name="图层 2" xmlns="http://www.w3.org/2000/svg" xmlns:xlink="http://www.w3.org/1999/xlink" viewBox="0 0 1920 1080">
  <defs>
    <style>
      .cls-1 {
        fill: none;
      }

      .cls-2 {
        fill: #93622c;
      }

      .cls-3 {
        clip-path: url(#clippath);
      }

      .cls-4 {
        fill: #e8e8e8;
      }
    </style>
    <clipPath id="clippath">
      <rect class="cls-1" width="1920" height="1080"/>
    </clipPath>
  </defs>
  <g id="_图层_1-2" data-name="图层 1">
    <rect class="cls-4" width="1920" height="1080"/>
    <g class="cls-3">
      <g>
        <g>
          <polygon class="cls-2" points=".08 547.1 -249.48 546.37 -376.96 183.76 -115.09 188.96 .08 547.1"/>
          <polygon class="cls-2" points="140.43 194.04 -115.09 188.96 -240.63 -201.4 27.83 -191.15 140.43 194.04"/>
          <polygon class="cls-2" points="482.01 548.51 243.84 547.81 140.43 194.04 389.84 199 482.01 548.51"/>
          <polygon class="cls-2" points="633.35 203.85 389.84 199 289.59 -181.16 544.88 -171.42 633.35 203.85"/>
          <polygon class="cls-2" points="942.29 549.86 714.76 549.19 633.35 203.85 871.16 208.58 942.29 549.86"/>
          <polygon class="cls-2" points="1103.49 213.2 871.16 208.58 793.95 -161.92 1037.03 -152.64 1103.49 213.2"/>
          <polygon class="cls-2" points="1382.35 551.14 1164.76 550.51 1103.49 213.2 1330.5 217.71 1382.35 551.14"/>
          <polygon class="cls-2" points="1552.39 222.12 1330.5 217.71 1274.32 -143.59 1506.03 -134.74 1552.39 222.12"/>
          <polygon class="cls-2" points="1803.51 552.38 1595.22 551.77 1552.39 222.12 1769.33 226.44 1803.51 552.38"/>
          <polygon class="cls-2" points="1981.47 230.65 1769.33 226.44 1732.36 -126.11 1953.49 -117.67 1981.47 230.65"/>
        </g>
        <g>
          <polygon class="cls-2" points="204.09 1181.44 -23.99 1187.73 -132.21 879.91 106.13 876.84 204.09 1181.44"/>
          <polygon class="cls-2" points="339.15 873.85 106.13 876.84 .08 547.1 243.84 547.81 339.15 873.85"/>
          <polygon class="cls-2" points="645.7 1169.26 427.27 1175.29 339.15 873.85 567.03 870.92 645.7 1169.26"/>
          <polygon class="cls-2" points="789.93 868.05 567.03 870.92 482.01 548.51 714.76 549.19 789.93 868.05"/>
          <polygon class="cls-2" points="1068.94 1157.59 859.55 1163.37 789.93 868.05 1008.02 865.25 1068.94 1157.59"/>
          <polygon class="cls-2" points="1221.44 862.51 1008.02 865.25 942.29 549.86 1164.76 550.51 1221.44 862.51"/>
          <polygon class="cls-2" points="1474.92 1146.4 1274.02 1151.94 1221.44 862.51 1430.36 859.82 1474.92 1146.4"/>
          <polygon class="cls-2" points="1634.9 857.19 1430.36 859.82 1382.35 551.14 1595.22 551.77 1634.9 857.19"/>
          <polygon class="cls-2" points="1864.68 1135.65 1671.76 1140.97 1634.9 857.19 1835.2 854.62 1864.68 1135.65"/>
          <polygon class="cls-2" points="2031.41 852.09 1835.2 854.62 1803.51 552.38 2007.37 552.97 2031.41 852.09"/>
        </g>
      </g>
    </g>
  </g>
</svg>