<svg width="703" height="703" viewBox="0 0 703 703" fill="none" xmlns="http://www.w3.org/2000/svg">
<g clip-path="url(#clip0_66_16)">
<path d="M334.11 147.192C334.385 149.11 334.533 151.007 334.553 152.826C334.572 154.587 334.484 156.327 334.277 157.999C334.071 159.651 333.756 161.234 333.353 162.728C332.458 165.973 333.5 169.444 336.037 171.667C337.67 173.093 339.735 173.84 341.829 173.84C342.989 173.84 344.15 173.614 345.251 173.142C346.903 172.444 348.643 171.834 350.453 171.323C352.242 170.811 354.199 170.379 356.225 170.044C358.3 169.71 360.443 169.474 362.606 169.356C363.816 169.287 365.035 169.258 366.284 169.258C367.346 169.258 368.428 169.287 369.519 169.336C423.769 171.795 480.063 173.712 536.859 175.02C536.928 175.02 536.997 175.02 537.066 175.02C539.632 175.02 542.071 173.899 543.743 171.942C545.454 169.936 546.181 167.262 545.709 164.666C538.796 126.474 531.943 86.8364 525.148 45.9305C473.918 16.7557 414.683 0 351.495 0C333.343 0 315.506 1.37664 298.091 4.03158C309.517 51.3486 321.121 97.1317 332.861 141.145C333.402 143.17 333.825 145.206 334.1 147.182L334.11 147.192Z" fill="#E6E6E6"/>
<path d="M466.444 635.269C467.624 632.516 467.319 629.32 465.589 626.823C463.937 624.424 461.223 623.027 458.361 623.027C457.919 623.027 457.476 623.057 457.024 623.126C455.815 623.312 454.556 623.46 453.248 623.578C451.901 623.696 450.505 623.774 449.059 623.824C448.164 623.853 447.25 623.863 446.316 623.863C445.696 623.863 445.057 623.863 444.457 623.843C442.845 623.804 441.183 623.735 439.472 623.617C402.598 621.1 365.674 618.317 329.724 615.328C329.479 615.308 329.233 615.298 328.997 615.298C325.821 615.298 322.871 617.019 321.317 619.822C319.645 622.84 319.891 626.567 321.956 629.34C342.891 657.453 363.777 681.564 384.308 701.417C422.706 697.857 459.296 688.113 493.112 673.206C484.311 661.789 475.412 649.183 466.454 635.26L466.444 635.269Z" fill="#E6E6E6"/>
<path d="M575.533 489.356C575.464 488.677 575.474 487.999 575.533 487.359C575.602 486.73 575.73 486.101 575.936 485.472C576.133 484.862 576.398 484.242 576.752 483.603C578.434 480.535 578.139 476.759 575.995 473.996C574.304 471.813 571.728 470.584 569.053 470.584C568.335 470.584 567.607 470.673 566.88 470.859C565.375 471.243 563.733 471.577 562.022 471.862C560.252 472.148 558.453 472.374 556.673 472.521C554.756 472.679 552.818 472.777 550.911 472.797H549.829C548.187 472.797 546.506 472.757 544.795 472.659C499.12 470.102 453.524 467.084 409.265 463.671C409.038 463.652 408.812 463.642 408.586 463.642C405.793 463.642 403.148 464.969 401.487 467.251C399.687 469.709 399.294 472.924 400.444 475.747C422.982 531.068 445.5 579.211 467.378 618.838C467.506 619.064 467.605 619.271 467.683 619.527C466.189 622.388 466.385 625.859 468.224 628.544C469.876 630.963 472.6 632.369 475.471 632.369C475.933 632.369 476.405 632.329 476.867 632.26C478.106 632.064 479.414 631.906 480.761 631.769C482.158 631.641 483.613 631.543 485.147 631.494C486.179 631.454 487.231 631.435 488.303 631.435H489.896C491.568 631.464 493.289 631.543 495.059 631.651C516.062 632.968 537.331 634.207 558.669 635.378C576.536 622.309 593.115 607.599 608.199 591.463C597.608 562.121 586.802 528.757 575.946 491.657C575.71 490.86 575.563 490.093 575.494 489.365L575.533 489.356Z" fill="#E6E6E6"/>
<path d="M191.598 611.64C191.156 611.119 190.782 610.618 190.497 610.156C190.281 609.821 190.114 609.497 190.005 609.231C189.966 609.143 189.946 609.064 189.927 609.015C189.966 608.582 189.976 608.15 189.946 607.727C191.008 608.169 192.159 608.405 193.329 608.405C193.85 608.405 194.371 608.356 194.883 608.268C195.748 608.11 196.731 607.982 197.862 607.874C198.983 607.776 200.173 607.707 201.392 607.697H202.307C203.319 607.697 204.372 607.717 205.473 607.766C206.918 607.835 208.433 607.953 210.016 608.11C245.199 611.768 281.434 615.229 317.708 618.386C317.964 618.406 318.22 618.415 318.475 618.415C321.602 618.415 324.523 616.744 326.096 613.99C327.797 611.011 327.61 607.324 325.624 604.531C297.491 565.021 268.68 517.498 240.007 463.288C239.496 462.305 239.053 461.331 238.709 460.397C238.404 459.542 238.168 458.725 238.011 457.909C237.883 457.241 237.814 456.562 237.804 455.903C237.804 455.333 237.853 454.782 237.952 454.251C238.532 451.282 237.549 448.214 235.336 446.149C233.684 444.605 231.531 443.769 229.328 443.769C228.581 443.769 227.824 443.868 227.086 444.064C225.916 444.369 224.716 444.625 223.468 444.802C222.229 444.988 220.832 445.126 219.308 445.205C218.472 445.254 217.607 445.274 216.732 445.274C216.044 445.274 215.345 445.264 214.667 445.244C213.025 445.185 211.284 445.057 209.504 444.861C169.297 440.337 129.6 435.382 91.5168 430.14C91.1136 430.081 90.7105 430.062 90.3171 430.062C87.4164 430.062 84.6729 431.497 83.0308 433.946C81.1625 436.729 81.0347 440.337 82.7063 443.238C115.864 500.792 149.532 551.914 182.768 595.199C183.221 595.78 183.614 596.37 183.938 596.93C184.174 597.343 184.361 597.736 184.499 598.1C184.578 598.326 184.607 598.464 184.617 598.523C184.548 599.044 184.538 599.575 184.568 600.086C183.506 599.644 182.355 599.408 181.185 599.408C180.664 599.408 180.143 599.457 179.631 599.546C178.845 599.683 177.901 599.811 176.8 599.909C175.708 600.008 174.558 600.057 173.378 600.077H172.748C171.686 600.077 170.585 600.047 169.474 599.998C168.068 599.919 166.593 599.801 165.088 599.644C141.508 597.097 118.037 594.403 94.9485 591.63C142.344 642.241 204.509 678.791 274.6 694.445C247.342 672.232 219.485 644.463 191.608 611.631L191.598 611.64Z" fill="#E6E6E6"/>
<path d="M327.345 212.986C326.804 211.206 326.371 209.416 326.067 207.646C325.772 205.955 325.595 204.254 325.536 202.602C325.477 201.009 325.536 199.436 325.693 197.872C325.84 196.407 326.116 194.942 326.479 193.516C327.325 190.291 326.273 186.869 323.756 184.676C322.123 183.25 320.058 182.503 317.974 182.503C316.853 182.503 315.712 182.719 314.64 183.162C313.087 183.801 311.445 184.352 309.734 184.814C307.974 185.286 306.135 185.669 304.286 185.945C302.349 186.23 300.343 186.416 298.327 186.495C297.55 186.525 296.774 186.534 295.977 186.534C294.63 186.534 293.253 186.495 291.857 186.407C241.59 183.211 192.169 179.455 144.96 175.226C144.694 175.207 144.439 175.197 144.173 175.197C141.449 175.197 138.863 176.456 137.192 178.638C135.363 181.028 134.881 184.194 135.923 187.026C168.52 275.278 201.923 355.556 235.199 425.627C235.749 426.787 236.192 427.908 236.526 428.941C236.841 429.924 237.077 430.888 237.224 431.783C237.352 432.609 237.411 433.366 237.401 434.093C237.391 434.772 237.322 435.411 237.195 435.972C236.546 438.971 237.509 442.098 239.741 444.212C241.393 445.775 243.567 446.621 245.779 446.621C246.556 446.621 247.333 446.522 248.109 446.306C249.289 445.982 250.548 445.716 251.817 445.51C253.36 445.274 254.786 445.116 256.241 445.028C257.353 444.959 258.513 444.92 259.693 444.92C260.175 444.92 260.666 444.92 261.109 444.929C262.918 444.979 264.767 445.097 266.596 445.274C309.468 449.551 353.737 453.455 398.173 456.867C398.399 456.887 398.625 456.896 398.851 456.896C401.624 456.896 404.25 455.579 405.912 453.327C407.711 450.898 408.134 447.702 407.023 444.89C380.572 377.592 353.757 299.566 327.325 212.976L327.345 212.986Z" fill="#E6E6E6"/>
<path d="M544.47 197.725C541.904 197.725 539.455 198.846 537.784 200.802C536.063 202.818 535.345 205.512 535.827 208.118C552.74 298.662 569.81 379.952 586.566 449.708C586.792 450.672 586.94 451.616 586.989 452.521C587.038 453.376 587.008 454.173 586.9 454.999C586.802 455.756 586.625 456.503 586.389 457.201C586.133 457.958 585.809 458.686 585.415 459.374C583.695 462.452 583.97 466.258 586.123 469.05C587.815 471.233 590.401 472.462 593.075 472.462C593.813 472.462 594.56 472.364 595.308 472.177C596.91 471.754 598.631 471.381 600.391 471.076C602.181 470.761 604.069 470.515 605.957 470.328C608.071 470.132 610.047 470.014 612.014 469.965C612.752 469.945 613.509 469.935 614.256 469.935C615.623 469.935 617.009 469.965 618.415 470.024C639.321 470.928 660.432 471.735 681.603 472.462C695.428 434.742 702.98 393.994 702.98 351.485C702.98 297.275 690.689 245.946 668.771 200.094C626.99 199.613 585.415 198.826 544.696 197.715C544.618 197.715 544.539 197.715 544.46 197.715L544.47 197.725Z" fill="#E6E6E6"/>
<path d="M76.1379 422.579C79.0092 422.579 81.733 421.173 83.3849 418.764C85.2729 416.01 85.4401 412.441 83.8176 409.52C59.1758 365.212 34.6814 317.03 10.6099 265.652C3.70709 293.135 0 321.878 0 351.495C0 372.194 1.88796 392.43 5.31972 412.146C28.1326 415.725 51.3683 419.196 74.9186 422.49C75.3218 422.549 75.7348 422.579 76.1379 422.579Z" fill="#E6E6E6"/>
<path d="M130.082 153.967C132.796 153.967 135.373 152.709 137.044 150.545C138.863 148.175 139.365 145.039 138.352 142.226C131.97 124.379 125.638 106.119 119.335 87.6919C98.9703 105.627 80.72 125.884 64.9575 148.048C86.0693 150.113 107.545 152.089 129.335 153.938C129.581 153.957 129.837 153.967 130.082 153.967Z" fill="#E6E6E6"/>
<path d="M618.435 470.043C617.029 469.984 615.642 469.955 614.276 469.955C613.518 469.955 612.771 469.955 612.034 469.984C610.067 470.033 608.091 470.151 605.976 470.348C604.088 470.535 602.2 470.791 600.411 471.095C598.651 471.4 596.94 471.774 595.327 472.197C594.59 472.393 593.842 472.482 593.095 472.482C590.411 472.482 587.834 471.253 586.143 469.07C583.99 466.277 583.704 462.472 585.435 459.394C585.828 458.696 586.153 457.968 586.408 457.221C586.644 456.523 586.821 455.775 586.92 455.018C587.028 454.192 587.057 453.396 587.008 452.54C586.959 451.626 586.812 450.682 586.585 449.728C569.83 379.962 552.759 298.681 535.846 208.138C535.355 205.532 536.082 202.838 537.803 200.822C539.475 198.865 541.923 197.744 544.49 197.744C544.568 197.744 544.647 197.744 544.726 197.744C585.455 198.855 627.019 199.642 668.8 200.124C637.777 135.215 587.392 81.3888 525.168 45.9502C531.962 86.8462 538.816 126.493 545.729 164.685C546.201 167.281 545.473 169.956 543.762 171.962C542.091 173.919 539.652 175.04 537.086 175.04C537.017 175.04 536.948 175.04 536.879 175.04C480.083 173.732 423.778 171.814 369.539 169.356C368.447 169.307 367.366 169.277 366.304 169.277C365.055 169.277 363.836 169.307 362.626 169.376C360.463 169.494 358.319 169.73 356.244 170.064C354.209 170.398 352.262 170.831 350.472 171.342C348.663 171.854 346.923 172.463 345.271 173.161C344.169 173.624 342.999 173.86 341.849 173.86C339.754 173.86 337.689 173.112 336.057 171.686C333.52 169.464 332.478 165.993 333.372 162.748C333.785 161.253 334.09 159.67 334.297 158.018C334.503 156.347 334.592 154.606 334.572 152.846C334.552 151.027 334.395 149.139 334.13 147.212C333.844 145.226 333.432 143.2 332.891 141.174C321.15 97.1612 309.547 51.3781 298.121 4.06108C230.164 14.4252 168.658 44.2983 119.364 87.7214C125.667 106.149 132 124.399 138.382 142.256C139.385 145.068 138.893 148.205 137.074 150.575C135.402 152.748 132.826 153.997 130.112 153.997C129.866 153.997 129.62 153.997 129.365 153.967C107.574 152.119 86.0988 150.142 64.9871 148.077C40.0896 183.083 21.4066 222.799 10.6393 265.681C34.7108 317.059 59.2052 365.242 83.847 409.55C85.4695 412.46 85.3023 416.04 83.4143 418.793C81.7624 421.202 79.0386 422.608 76.1673 422.608C75.7642 422.608 75.361 422.579 74.948 422.52C51.3977 419.236 28.162 415.764 5.34912 412.175C17.316 480.938 49.2245 542.818 94.9584 591.659C118.047 594.442 141.518 597.127 165.098 599.673C166.603 599.831 168.068 599.949 169.484 600.028C170.595 600.086 171.696 600.106 172.758 600.106H173.387C174.567 600.086 175.718 600.027 176.809 599.939C177.911 599.841 178.865 599.723 179.641 599.575C180.163 599.477 180.684 599.437 181.195 599.437C182.365 599.437 183.506 599.673 184.578 600.116C184.548 599.595 184.568 599.074 184.627 598.553C184.627 598.494 184.587 598.356 184.509 598.13C184.381 597.766 184.184 597.373 183.948 596.96C183.624 596.399 183.23 595.809 182.778 595.229C149.542 551.943 115.883 500.821 82.7162 443.268C81.0446 440.357 81.1724 436.758 83.0407 433.975C84.6828 431.527 87.4361 430.091 90.327 430.091C90.7204 430.091 91.1235 430.121 91.5267 430.17C129.61 435.411 169.307 440.367 209.514 444.89C211.304 445.087 213.045 445.224 214.677 445.274C215.365 445.293 216.063 445.303 216.742 445.303C217.617 445.303 218.482 445.283 219.318 445.234C220.842 445.156 222.238 445.018 223.477 444.831C224.726 444.644 225.926 444.399 227.096 444.094C227.834 443.897 228.591 443.799 229.338 443.799C231.541 443.799 233.704 444.625 235.346 446.178C237.558 448.253 238.542 451.311 237.962 454.281C237.853 454.812 237.804 455.372 237.814 455.933C237.814 456.592 237.883 457.26 238.021 457.939C238.178 458.755 238.404 459.571 238.719 460.426C239.063 461.361 239.505 462.344 240.017 463.317C268.7 517.537 297.501 565.061 325.634 604.561C327.62 607.353 327.807 611.05 326.106 614.02C324.533 616.773 321.612 618.445 318.485 618.445C318.229 618.445 317.974 618.445 317.718 618.415C281.434 615.249 245.199 611.798 210.026 608.14C208.452 607.973 206.938 607.864 205.483 607.796C204.382 607.737 203.329 607.717 202.317 607.717H201.402C200.183 607.737 198.993 607.796 197.872 607.904C196.751 608.012 195.768 608.14 194.893 608.297C194.371 608.395 193.85 608.435 193.339 608.435C192.169 608.435 191.028 608.199 189.956 607.756C189.976 608.189 189.976 608.612 189.937 609.044C189.946 609.094 189.976 609.162 190.015 609.261C190.123 609.526 190.291 609.851 190.507 610.185C190.802 610.647 191.176 611.149 191.608 611.67C219.485 644.503 247.342 672.272 274.6 694.485C299.37 700.011 325.083 703.03 351.515 703.03C362.577 703.03 373.511 702.449 384.318 701.456C363.786 681.603 342.891 657.492 321.966 629.379C319.901 626.606 319.655 622.89 321.327 619.861C322.881 617.058 325.84 615.338 329.007 615.338C329.252 615.338 329.488 615.338 329.734 615.367C365.684 618.347 402.608 621.139 439.482 623.656C441.193 623.774 442.855 623.843 444.467 623.883C445.067 623.883 445.696 623.902 446.326 623.902C447.26 623.902 448.174 623.893 449.069 623.863C450.505 623.814 451.911 623.735 453.258 623.617C454.566 623.499 455.834 623.352 457.034 623.165C457.476 623.096 457.929 623.067 458.371 623.067C461.233 623.067 463.947 624.463 465.599 626.862C467.329 629.36 467.624 632.555 466.454 635.309C475.422 649.232 484.321 661.848 493.112 673.255C516.416 662.979 538.393 650.275 558.718 635.407C537.38 634.237 516.111 632.998 495.108 631.68C493.338 631.572 491.617 631.503 489.945 631.474H488.352C487.271 631.474 486.219 631.474 485.196 631.523C483.662 631.582 482.207 631.671 480.81 631.798C479.463 631.926 478.156 632.083 476.917 632.29C476.454 632.369 475.982 632.398 475.52 632.398C472.649 632.398 469.925 630.992 468.273 628.573C466.434 625.889 466.238 622.418 467.732 619.556C467.644 619.31 467.546 619.094 467.428 618.868C445.549 579.24 423.031 531.107 400.493 475.776C399.343 472.954 399.736 469.738 401.536 467.28C403.198 464.999 405.843 463.671 408.635 463.671C408.861 463.671 409.088 463.671 409.314 463.701C453.573 467.113 499.169 470.132 544.844 472.688C546.555 472.787 548.236 472.826 549.878 472.826H550.96C552.868 472.797 554.805 472.698 556.722 472.541C558.492 472.384 560.301 472.167 562.071 471.882C563.782 471.607 565.425 471.263 566.929 470.879C567.647 470.692 568.375 470.604 569.102 470.604C571.777 470.604 574.363 471.833 576.044 474.016C578.188 476.779 578.483 480.555 576.802 483.623C576.457 484.252 576.182 484.882 575.985 485.491C575.789 486.12 575.651 486.75 575.582 487.379C575.513 488.028 575.513 488.697 575.582 489.375C575.651 490.093 575.808 490.87 576.034 491.666C586.89 528.767 597.697 562.131 608.287 591.473C640.117 557.43 665.319 517.114 681.672 472.502C660.491 471.774 639.38 470.977 618.484 470.063L618.435 470.043ZM405.931 453.337C404.269 455.589 401.644 456.906 398.871 456.906C398.645 456.906 398.419 456.906 398.193 456.877C353.757 453.465 309.488 449.561 266.615 445.283C264.786 445.106 262.938 444.988 261.128 444.939C260.676 444.939 260.194 444.93 259.713 444.93C258.523 444.93 257.372 444.959 256.261 445.038C254.806 445.126 253.38 445.274 251.836 445.519C250.568 445.716 249.319 445.982 248.129 446.316C247.362 446.522 246.575 446.631 245.799 446.631C243.576 446.631 241.413 445.795 239.761 444.222C237.529 442.107 236.565 438.98 237.214 435.981C237.332 435.421 237.401 434.782 237.421 434.103C237.431 433.376 237.372 432.618 237.244 431.792C237.096 430.898 236.86 429.934 236.546 428.951C236.211 427.908 235.759 426.797 235.218 425.637C201.943 355.566 168.54 275.288 135.943 187.036C134.901 184.214 135.373 181.048 137.211 178.648C138.883 176.465 141.469 175.207 144.193 175.207C144.458 175.207 144.714 175.217 144.98 175.236C192.179 179.464 241.61 183.221 291.877 186.416C293.273 186.505 294.65 186.544 295.997 186.544C296.783 186.544 297.57 186.525 298.347 186.505C300.363 186.426 302.369 186.239 304.306 185.954C306.164 185.679 307.993 185.305 309.753 184.824C311.464 184.361 313.116 183.801 314.66 183.172C315.742 182.729 316.873 182.513 317.993 182.513C320.088 182.513 322.143 183.26 323.775 184.686C326.283 186.879 327.335 190.301 326.499 193.526C326.125 194.952 325.86 196.417 325.712 197.882C325.545 199.436 325.496 201.019 325.555 202.612C325.614 204.264 325.791 205.955 326.086 207.656C326.391 209.426 326.824 211.216 327.364 212.995C353.806 299.586 380.611 377.612 407.062 444.91C408.173 447.722 407.75 450.918 405.951 453.347L405.931 453.337Z" fill="#93622C"/>
</g>
<defs>
<clipPath id="clip0_66_16">
<rect width="703" height="703" fill="white"/>
</clipPath>
</defs>
</svg>
