<svg width="585" height="85" viewBox="0 0 585 85" fill="none" xmlns="http://www.w3.org/2000/svg">
<g clip-path="url(#clip0_66_28)">
<path d="M135.004 0H42.1937C18.8908 0 0 18.8885 0 42.1887C0 65.4889 18.8908 84.3774 42.1937 84.3774H135.004C158.307 84.3774 177.198 65.4889 177.198 42.1887C177.198 18.8885 158.307 0 135.004 0Z" fill="#FF2442"/>
<path d="M147.658 22.4974C145.327 22.4974 143.437 24.388 143.437 26.7187V30.69C143.437 30.8301 143.547 30.9401 143.687 30.9401H147.658C149.989 30.9401 151.879 29.0495 151.879 26.7187C151.879 24.388 149.989 22.4974 147.658 22.4974Z" fill="white"/>
<path d="M149.948 41.7636C149.858 41.6636 149.778 41.5535 149.678 41.4535C148.128 39.7529 145.907 38.6826 143.426 38.6826H142.076V30.9401C142.076 26.2686 138.295 22.4873 133.623 22.4873H128.341C128.201 22.4873 128.091 22.3773 128.091 22.2373V19.9265C128.091 19.7865 127.981 19.6764 127.841 19.6764H119.899C119.759 19.6764 119.649 19.7865 119.649 19.9265V22.2373C119.649 22.3773 119.539 22.4873 119.399 22.4873H114.367C114.227 22.4873 114.117 22.5974 114.117 22.7374V30.68C114.117 30.8201 114.227 30.9301 114.367 30.9301H119.399C119.539 30.9301 119.649 31.0401 119.649 31.1802V38.4225C119.649 38.5626 119.539 38.6726 119.399 38.6726H111.546C111.406 38.6726 111.296 38.7826 111.296 38.9227V46.8653C111.296 47.0053 111.406 47.1153 111.546 47.1153H119.399C119.539 47.1153 119.649 47.2254 119.649 47.3654V64.421C119.649 64.561 119.759 64.671 119.899 64.671H127.841C127.981 64.671 128.091 64.561 128.091 64.421V47.3654C128.091 47.2254 128.201 47.1153 128.341 47.1153H141.316C142.486 47.1153 143.426 48.0556 143.426 49.226V55.7081C143.426 56.4084 142.856 56.9785 142.156 56.9785H134.003C133.823 56.9785 133.693 57.1686 133.773 57.3387L136.974 64.541C137.014 64.631 137.104 64.691 137.204 64.691H144.157C148.408 64.691 151.859 61.2399 151.859 56.9886V47.1353C151.859 45.3848 151.329 43.7643 150.419 42.4138C150.269 42.1937 150.109 41.9737 149.928 41.7636H149.948ZM133.373 38.6926H128.341C128.201 38.6926 128.091 38.5826 128.091 38.4425V31.2002C128.091 31.0601 128.201 30.9501 128.341 30.9501H132.353C133.053 30.9501 133.623 31.5203 133.623 32.2205V38.4425C133.623 38.5826 133.513 38.6926 133.373 38.6926Z" fill="white"/>
<path d="M82.5468 56.2483H73.2638C72.0834 56.2483 70.9531 56.0182 69.9127 55.5981C69.7827 55.5481 69.6426 55.5981 69.5826 55.7281L66.0115 63.7608C65.9514 63.9008 66.0115 64.0608 66.1615 64.1109C67.4019 64.501 68.7123 64.7111 70.0728 64.7111H79.0057C79.1057 64.7111 79.1957 64.651 79.2358 64.561L82.7769 56.6184C82.8469 56.4484 82.7269 56.2583 82.5468 56.2583V56.2483Z" fill="white"/>
<path d="M111.566 56.2483H103.804C103.664 56.2483 103.554 56.1382 103.554 55.9982V31.2001C103.554 31.0601 103.664 30.95 103.804 30.95H108.726C108.866 30.95 108.976 30.84 108.976 30.7V22.7574C108.976 22.6173 108.866 22.5073 108.726 22.5073H89.9494C89.8094 22.5073 89.6993 22.6173 89.6993 22.7574V30.7C89.6993 30.84 89.8094 30.95 89.9494 30.95H94.6809C94.821 30.95 94.931 31.0601 94.931 31.2001V55.9982C94.931 56.1382 94.821 56.2483 94.6809 56.2483H87.5286C87.4286 56.2483 87.3386 56.3083 87.2985 56.3983L83.7574 64.3409C83.6874 64.5109 83.8074 64.701 83.9875 64.701H111.576C111.716 64.701 111.827 64.591 111.827 64.4509V56.5083C111.827 56.3683 111.716 56.2583 111.576 56.2583L111.566 56.2483Z" fill="white"/>
<path d="M65.2012 47.7155L63.9208 31.1801C63.9108 31.0501 63.8008 30.9501 63.6707 30.9501H55.6982C55.5481 30.9501 55.4381 31.0801 55.4481 31.2201L56.7685 48.2457C57.1386 52.8272 58.7491 57.0485 61.28 60.5797C61.39 60.7397 61.6401 60.7097 61.7201 60.5297L65.8615 51.2366C65.8815 51.1766 65.8915 51.1166 65.8715 51.0666C65.5414 49.9962 65.3113 48.8759 65.2113 47.7255L65.2012 47.7155Z" fill="white"/>
<path d="M83.7773 52.6171L86.9983 45.3748C87.0684 45.2047 86.9483 45.0146 86.7683 45.0146H82.1868C81.5766 45.0146 81.1664 44.3844 81.4165 43.8243L86.9983 31.2902C87.0684 31.1201 86.9483 30.9301 86.7683 30.9301H80.2061C79.5959 30.9301 79.1858 30.2999 79.4359 29.7397L83.7673 20.0165C83.8373 19.8465 83.7173 19.6564 83.5372 19.6564H75.5246C75.4246 19.6564 75.3345 19.7164 75.2945 19.8065L68.4823 35.1014C67.7321 36.782 68.9625 38.6626 70.7931 38.6626H75.4546L70.7731 49.176C70.0228 50.8465 71.2532 52.7371 73.0838 52.7371H83.5372C83.6372 52.7371 83.7273 52.6771 83.7673 52.5871L83.7773 52.6171Z" fill="white"/>
<path d="M35.4815 30.9401H27.4989C27.3689 30.9401 27.2588 31.0401 27.2488 31.1702L26.0084 47.4655C25.9184 48.6859 25.6883 49.8662 25.3382 50.9966C25.3182 51.0566 25.3282 51.1166 25.3482 51.1667L29.5096 60.5197C29.5896 60.6998 29.8397 60.7298 29.9497 60.5697C32.6606 56.7785 34.3211 52.187 34.5212 47.2154L35.7416 31.2002C35.7516 31.0501 35.6316 30.9301 35.4915 30.9301L35.4815 30.9401Z" fill="white"/>
<path d="M49.6462 19.6764H41.5335C41.3935 19.6764 41.2835 19.7865 41.2835 19.9265V56.1483C41.2835 56.6184 40.9033 56.9886 40.4432 56.9886H35.6216C35.4416 56.9886 35.3115 57.1786 35.3916 57.3487L38.5926 64.551C38.6326 64.641 38.7226 64.7011 38.8227 64.7011H42.2038C46.4551 64.7011 49.9063 61.2499 49.9063 56.9985V19.9265C49.9063 19.7865 49.7962 19.6764 49.6562 19.6764H49.6462Z" fill="white"/>
<path d="M250.982 67.0718L250.962 67.1418C250.691 68.1321 250.241 69.7827 246.34 69.7827H231.365C229.885 69.7827 228.684 68.5823 228.684 67.1018V58.6491H250.381H250.711V12.8742H228.684V5.4618H220.052V12.8742H198.394V58.6591H220.052V67.1118C220.052 73.3538 225.133 78.4255 231.365 78.4255H246.34C252.992 78.4255 257.714 74.6143 259.284 68.9224C260.245 65.5913 260.565 63.2806 260.585 63.0805L252.272 60.1596C252.132 61.3399 251.622 64.8911 250.982 67.0818V67.0718ZM228.674 51.4667V39.7329H242.119V51.4667H228.674ZM242.119 20.0665V32.5406H228.674V20.0665H242.119ZM220.042 20.0665V32.5406H206.307V20.0665H220.042ZM206.317 51.4667V39.7329H220.052V51.4667H206.317Z" fill="#232323"/>
<path d="M297.317 5.4618H288.694V12.224H264.296V19.4163H276.41L281.001 26.8988H272.779H264.936V78.4355H272.779V45.6348L277.15 51.1366L281.851 46.9453C281.371 47.7355 281.081 48.6658 281.081 49.6561V68.2022H304.939V49.6561C304.939 48.7258 304.699 47.8556 304.269 47.1053L308.79 51.1366L313.252 45.5148V68.0621C313.252 69.4526 312.121 70.5729 310.741 70.5729H299.837L301.798 78.4155H310.741C316.463 78.4155 321.094 73.784 321.094 68.0621V26.8888H305.739L310.331 19.4163H321.724V12.224H297.327V5.4618H297.317ZM272.779 45.3948V34.0711H285.473L272.779 45.3948ZM297.747 60.9998H288.274V52.9072C288.274 52.187 288.864 51.5968 289.584 51.5968H296.446C297.166 51.5968 297.757 52.187 297.757 52.9072V60.9998H297.747ZM299.707 44.4044H286.303C285.523 44.4044 284.782 44.5845 284.112 44.8846L290.444 39.2328L286.343 34.0611H299.567L295.466 39.2328L301.708 44.8046C301.088 44.5445 300.408 44.4044 299.697 44.4044H299.707ZM313.252 45.4748L300.468 34.0711H313.252V45.4748ZM296.636 26.8888H290.084L285.493 19.4063H301.228L296.636 26.8888Z" fill="#232323"/>
<path d="M490.94 5.70186H482.307V16.5254H457.969V58.639H461.89H482.307V78.6255H490.94V58.639H508.415H515.268V16.5254H490.93V5.70186H490.94ZM466.552 51.4567V23.7277H482.307V51.4567H466.552ZM506.695 23.7277V51.4567H490.94V23.7277H506.695Z" fill="#232323"/>
<path d="M418.476 78.4155H430.82C440.663 78.4155 448.646 70.4329 448.646 60.5897V10.2734H395.899V18.1259H440.803V58.9792C440.803 65.3812 435.611 70.5829 429.199 70.5829H416.525L418.486 78.4355L418.476 78.4155Z" fill="#232323"/>
<path d="M529.633 30.1464L521.598 57.5727L529.124 59.7778L537.159 32.3514L529.633 30.1464Z" fill="#232323"/>
<path d="M564.924 65.0211C564.524 66.2315 562.963 70.1728 559.692 70.1728H552.36C550.049 70.1728 548.168 68.3022 548.168 65.9814V23.9078H539.706V67.2018C539.706 73.5139 544.817 78.6255 551.129 78.6255H559.682C565.634 78.6255 570.716 74.4242 572.946 67.662C574.387 63.3206 574.857 57.4087 574.867 57.3286L566.654 54.4577C566.404 57.4087 565.694 62.6204 564.904 65.0011L564.924 65.0211Z" fill="#232323"/>
<path d="M564.934 25.0781L548.848 4.81156L542.666 9.89321L558.752 30.1598L564.934 25.0781Z" fill="#232323"/>
<path d="M574.296 29.2895L566.234 32.8307L576.927 57.4987L585 53.9475L574.296 29.2895Z" fill="#232323"/>
<path d="M378.253 5.4618H370.41V16.0452H362.408V5.4618H354.565V16.0452H346.562V5.4618H338.72V16.0452H329.717V35.6916H338.3V23.2276H378.683V35.6916H387.256V16.0452H378.253V5.4618Z" fill="#232323"/>
<path d="M375.492 36.8319L375.462 36.8019H375.542V29.6096H341.581V36.8019H363.598L347.613 50.0762H329.587V57.2686H363.618C363.888 59.1992 364.098 62.1602 363.438 64.861C362.928 66.9317 360.897 69.3825 357.496 70.2228C351.634 71.6632 346.292 69.0824 343.522 64.3409L336.769 68.2921C340.431 74.5542 346.542 78.4354 354.175 78.4354C355.906 78.4354 357.646 78.2354 359.347 77.8152C365.139 76.3948 369.72 72.0434 371.02 66.7216C371.851 63.3405 371.761 59.8594 371.481 57.2686H387.256V50.0762H359.547L375.492 36.8419V36.8319Z" fill="#232323"/>
<path d="M413.844 23.8478H404.361L411.284 41.6235H420.757L413.844 23.8478Z" fill="#232323"/>
<path d="M436.792 40.8632C431.74 43.104 419.176 48.5257 396.059 57.6787V67.1518C417.026 58.8991 429.3 53.7474 436.792 50.4864V40.8632Z" fill="#232323"/>
</g>
<defs>
<clipPath id="clip0_66_28">
<rect width="584.81" height="84.35" fill="white" transform="scale(1.00032)"/>
</clipPath>
</defs>
</svg>
