<svg width="51" height="51" viewBox="0 0 51 51" fill="none" xmlns="http://www.w3.org/2000/svg">
<g opacity="0.5">
<path d="M0 14.875C0 6.65975 6.65976 0 14.875 0H36.125C44.3403 0 51 6.65976 51 14.875V36.125C51 44.3403 44.3402 51 36.125 51H14.875C6.65975 51 0 44.3402 0 36.125V14.875Z" fill="#F5F5F5"/>
<path d="M22.8439 27.2708L18.4168 22.8437L22.8439 18.4166" stroke="#404040" stroke-width="1.73841" stroke-linecap="round" stroke-linejoin="round"/>
<path d="M18.4168 22.8437H27.7137C28.3532 22.8437 28.9864 22.9696 29.5773 23.2144C30.1681 23.4591 30.7049 23.8178 31.1571 24.27C31.6093 24.7222 31.968 25.259 32.2128 25.8499C32.4575 26.4407 32.5835 27.0739 32.5835 27.7135C32.5835 28.353 32.4575 28.9862 32.2128 29.577C31.968 30.1679 31.6093 30.7047 31.1571 31.1569C30.7049 31.6091 30.1681 31.9678 29.5773 32.2126C28.9864 32.4573 28.3532 32.5833 27.7137 32.5833H24.6147" stroke="#404040" stroke-width="1.73841" stroke-linecap="round" stroke-linejoin="round"/>
</g>
</svg>
